<svg version="1.1" xmlns="http://www.w3.org/2000/svg" xmlns:xlink="http://www.w3.org/1999/xlink" width="532.54027" height="422.73288" viewBox="0,0,532.54027,422.73288"><g transform="translate(4.6656,61.39955)"><g data-paper-data="{&quot;isPaintingLayer&quot;:true}" fill-rule="nonzero" stroke-linejoin="miter" stroke-miterlimit="10" stroke-dasharray="" stroke-dashoffset="0" style="mix-blend-mode: normal"><path d="M352.04166,175.33333c0,15.46398 -36.26493,28 -81,28c-44.73506,0 -81,-12.53602 -81,-28c0,-15.46398 36.26494,-28 81,-28c44.73507,0 81,12.53602 81,28z" fill="none" stroke="none" stroke-width="0" stroke-linecap="butt"></path><path d="M83.04166,12.33333v-64h23v64z" fill="none" stroke="#000000" stroke-width="2" stroke-linecap="butt"></path><path d="M0,359.33333v-181c0,0 390.15022,0 450.04885,0c14.94102,0 28.00183,0 28.00183,0v181z" fill="#4c4c4c" stroke="#000000" stroke-width="4" stroke-linecap="butt"></path><path d="M69.41821,-50.39054v-9.00901h48.04805v9.00901z" fill="none" stroke="#000000" stroke-width="4" stroke-linecap="butt"></path><path d="M-2.65386,182.34219c0,0 1.88316,-75.95402 2.69204,-108.57904c0.66371,-26.76976 1.81246,-73.10264 1.81246,-73.10264c0,0 218.82852,0 287.53754,0c14.69119,0 99.71301,-1.5015 151.65166,-1.5015c22.54323,0 41.29129,1.50151 41.29129,1.50151l22.52252,178.67868c0,0 -180.89577,0.12862 -203.44838,0.26207c-72.93579,0.43157 -304.05912,2.74094 -304.05912,2.74094z" fill="#00a9ff" stroke="#000000" stroke-width="4" stroke-linecap="butt"></path><path d="M1.85064,221.38123l477.47748,3.00301" fill="none" stroke="#000000" stroke-width="4" stroke-linecap="round"></path><path d="M525.87467,267.92777l-525.52553,-4.5045" fill="none" stroke="#000000" stroke-width="4" stroke-linecap="round"></path><path d="M476.32511,312.97282l-474.47447,-3.003" fill="none" stroke="#000000" stroke-width="4" stroke-linecap="round"></path></g></g></svg>