<svg version="1.1" xmlns="http://www.w3.org/2000/svg" xmlns:xlink="http://www.w3.org/1999/xlink" width="537.08354" height="422.73288" viewBox="0,0,537.08354,422.73288"><g transform="translate(9.20887,61.39955)"><g data-paper-data="{&quot;isPaintingLayer&quot;:true}" fill-rule="nonzero" stroke-linejoin="miter" stroke-miterlimit="10" stroke-dasharray="" stroke-dashoffset="0" style="mix-blend-mode: normal"><path d="M352.04166,175.33333c0,15.46398 -36.26493,28 -81,28c-44.73506,0 -81,-12.53602 -81,-28c0,-15.46398 36.26494,-28 81,-28c44.73507,0 81,12.53602 81,28z" fill="none" stroke="none" stroke-width="0" stroke-linecap="butt"></path><path d="M83.04166,12.33333v-64h23v64z" fill="none" stroke="#000000" stroke-width="2" stroke-linecap="butt"></path><path d="M0,359.33333v-181h478.05067v181z" fill="#4c4c4c" stroke="#000000" stroke-width="4" stroke-linecap="butt"></path><path d="M69.41821,-50.39054v-9.00901h48.04805v9.00901z" fill="none" stroke="#000000" stroke-width="4" stroke-linecap="butt"></path><path d="M-7.15837,177.83768l4.5045,-181.68168h480.48048l22.52252,178.67868z" fill="#00a9ff" stroke="#000000" stroke-width="4" stroke-linecap="butt"></path><path d="M1.85064,221.38123l477.47748,3.00301" fill="none" stroke="#000000" stroke-width="4" stroke-linecap="round"></path><path d="M0.34914,263.42327l525.52553,4.5045" fill="none" stroke="#000000" stroke-width="4" stroke-linecap="round"></path><path d="M1.85064,309.96982l474.47447,3.003" fill="none" stroke="#000000" stroke-width="4" stroke-linecap="round"></path></g></g></svg>